<svg xmlns="http://www.w3.org/2000/svg" viewBox="0 0 512 512">
  <defs>
    <radialGradient id="bg" cx="50%" cy="35%" r="80%">
      <stop offset="0%" stop-color="#2a1e14"/>
      <stop offset="100%" stop-color="#130e0b"/>
    </radialGradient>
    <linearGradient id="gold" x1="0" y1="0" x2="0" y2="1">
      <stop offset="0%" stop-color="#f4c964"/>
      <stop offset="100%" stop-color="#c8912f"/>
    </linearGradient>
  </defs>
  <rect width="512" height="512" rx="115" fill="url(#bg)"/>
  <g transform="rotate(-8 256 256) translate(256 256) scale(1.0) translate(-256 -256)">
    <path fill="url(#gold)" fill-rule="evenodd" d="M 108,166 h 296 a 22,22 0 0 1 22,22 v 136 a 22,22 0 0 1 -22,22 h -296 a 22,22 0 0 1 -22,-22 v -136 a 22,22 0 0 1 22,-22 Z M 205.00,194.00 L 218.92,236.84 L 263.97,236.84 L 227.52,263.32 L 241.44,306.16 L 205.00,279.68 L 168.56,306.16 L 182.48,263.32 L 146.03,236.84 L 191.08,236.84 Z M 306.00,166.00 a 18,18 0 1 0 36,0 a 18,18 0 1 0 -36,0 Z M 306.00,346.00 a 18,18 0 1 0 36,0 a 18,18 0 1 0 -36,0 Z M 318.50,198.00 a 5.5,5.5 0 1 0 11.0,0 a 5.5,5.5 0 1 0 -11.0,0 Z M 318.50,227.00 a 5.5,5.5 0 1 0 11.0,0 a 5.5,5.5 0 1 0 -11.0,0 Z M 318.50,256.00 a 5.5,5.5 0 1 0 11.0,0 a 5.5,5.5 0 1 0 -11.0,0 Z M 318.50,285.00 a 5.5,5.5 0 1 0 11.0,0 a 5.5,5.5 0 1 0 -11.0,0 Z M 318.50,314.00 a 5.5,5.5 0 1 0 11.0,0 a 5.5,5.5 0 1 0 -11.0,0 Z M 356.5,216 h 37.0 a 4.5,4.5 0 0 1 4.5,4.5 v 0.0 a 4.5,4.5 0 0 1 -4.5,4.5 h -37.0 a 4.5,4.5 0 0 1 -4.5,-4.5 v -0.0 a 4.5,4.5 0 0 1 4.5,-4.5 Z M 356.5,250 h 37.0 a 4.5,4.5 0 0 1 4.5,4.5 v 0.0 a 4.5,4.5 0 0 1 -4.5,4.5 h -37.0 a 4.5,4.5 0 0 1 -4.5,-4.5 v -0.0 a 4.5,4.5 0 0 1 4.5,-4.5 Z M 356.5,284 h 37.0 a 4.5,4.5 0 0 1 4.5,4.5 v 0.0 a 4.5,4.5 0 0 1 -4.5,4.5 h -37.0 a 4.5,4.5 0 0 1 -4.5,-4.5 v -0.0 a 4.5,4.5 0 0 1 4.5,-4.5 Z"/>
  </g>
</svg>
